<mxfile host="65bd71144e">
    <diagram id="C7LzCkIfsC1N3TE_U1xG" name="Page-1">
        <mxGraphModel dx="1256" dy="575" grid="0" gridSize="10" guides="1" tooltips="1" connect="1" arrows="1" fold="1" page="1" pageScale="1" pageWidth="850" pageHeight="1100" math="0" shadow="0">
            <root>
                <mxCell id="0"/>
                <mxCell id="1" parent="0"/>
                <mxCell id="40" style="edgeStyle=orthogonalEdgeStyle;curved=0;rounded=1;sketch=0;orthogonalLoop=1;jettySize=auto;html=1;exitX=0;exitY=0.5;exitDx=0;exitDy=0;entryX=1;entryY=0.5;entryDx=0;entryDy=0;startArrow=none;startFill=0;endArrow=none;endFill=0;strokeColor=#0B4D6A;shape=link;" edge="1" parent="1" source="15" target="38">
                    <mxGeometry relative="1" as="geometry"/>
                </mxCell>
                <mxCell id="15" value="Jobs" style="whiteSpace=wrap;html=1;align=center;rounded=0;sketch=0;fontColor=#EEEEEE;strokeColor=#BAC8D3;fillColor=#09555B;" vertex="1" parent="1">
                    <mxGeometry x="499.75" y="363" width="115" height="46" as="geometry"/>
                </mxCell>
                <mxCell id="55" style="edgeStyle=orthogonalEdgeStyle;curved=0;rounded=1;sketch=0;orthogonalLoop=1;jettySize=auto;html=1;exitX=0.5;exitY=1;exitDx=0;exitDy=0;entryX=0.5;entryY=0;entryDx=0;entryDy=0;startArrow=none;startFill=0;endArrow=none;endFill=0;strokeColor=#0B4D6A;" edge="1" parent="1" source="16" target="54">
                    <mxGeometry relative="1" as="geometry">
                        <Array as="points">
                            <mxPoint x="744" y="97"/>
                        </Array>
                    </mxGeometry>
                </mxCell>
                <mxCell id="16" value="User" style="whiteSpace=wrap;html=1;align=center;rounded=0;sketch=0;fontColor=#EEEEEE;strokeColor=#BAC8D3;fillColor=#09555B;" vertex="1" parent="1">
                    <mxGeometry x="689" y="51" width="115" height="46" as="geometry"/>
                </mxCell>
                <mxCell id="19" value="Learning_Resources" style="whiteSpace=wrap;html=1;align=center;rounded=0;sketch=0;fontColor=#EEEEEE;strokeColor=#BAC8D3;fillColor=#09555B;" vertex="1" parent="1">
                    <mxGeometry x="615.25" y="464" width="130" height="52" as="geometry"/>
                </mxCell>
                <mxCell id="20" value="&lt;span&gt;Application_List&lt;/span&gt;" style="shape=ext;margin=3;double=1;whiteSpace=wrap;html=1;align=center;rounded=0;sketch=0;fontColor=#EEEEEE;strokeColor=#BAC8D3;fillColor=#09555B;" vertex="1" parent="1">
                    <mxGeometry x="493.25" y="153" width="128" height="50" as="geometry"/>
                </mxCell>
                <mxCell id="21" value="Salary_Reports" style="whiteSpace=wrap;html=1;align=center;rounded=0;sketch=0;fontColor=#EEEEEE;strokeColor=#BAC8D3;fillColor=#09555B;" vertex="1" parent="1">
                    <mxGeometry x="21" y="578" width="122.5" height="49" as="geometry"/>
                </mxCell>
                <mxCell id="23" value="Admins" style="whiteSpace=wrap;html=1;align=center;rounded=0;sketch=0;fontColor=#EEEEEE;strokeColor=#BAC8D3;fillColor=#09555B;" vertex="1" parent="1">
                    <mxGeometry x="105.25" y="160" width="120" height="48" as="geometry"/>
                </mxCell>
                <mxCell id="24" value="Company" style="whiteSpace=wrap;html=1;align=center;rounded=0;sketch=0;fontColor=#EEEEEE;strokeColor=#BAC8D3;fillColor=#09555B;" vertex="1" parent="1">
                    <mxGeometry x="105.25" y="363" width="115" height="46" as="geometry"/>
                </mxCell>
                <mxCell id="25" value="Company_Review" style="whiteSpace=wrap;html=1;align=center;rounded=0;sketch=0;fontColor=#EEEEEE;strokeColor=#BAC8D3;fillColor=#09555B;" vertex="1" parent="1">
                    <mxGeometry x="188.75" y="577" width="125" height="50" as="geometry"/>
                </mxCell>
                <mxCell id="26" value="Practice Questions" style="whiteSpace=wrap;html=1;align=center;rounded=0;sketch=0;fontColor=#EEEEEE;strokeColor=#BAC8D3;fillColor=#09555B;" vertex="1" parent="1">
                    <mxGeometry x="541.75" y="582" width="122.5" height="49" as="geometry"/>
                </mxCell>
                <mxCell id="27" value="Tutorial_Videos" style="whiteSpace=wrap;html=1;align=center;rounded=0;sketch=0;fontColor=#EEEEEE;strokeColor=#BAC8D3;fillColor=#09555B;" vertex="1" parent="1">
                    <mxGeometry x="706.25" y="582" width="122.5" height="49" as="geometry"/>
                </mxCell>
                <mxCell id="29" style="edgeStyle=orthogonalEdgeStyle;curved=0;rounded=1;sketch=0;orthogonalLoop=1;jettySize=auto;html=1;exitX=1;exitY=1;exitDx=0;exitDy=0;entryX=0.5;entryY=0;entryDx=0;entryDy=0;strokeColor=#0B4D6A;startArrow=none;startFill=0;endArrow=none;endFill=0;" edge="1" parent="1" source="28" target="27">
                    <mxGeometry relative="1" as="geometry"/>
                </mxCell>
                <mxCell id="30" style="edgeStyle=orthogonalEdgeStyle;curved=0;rounded=1;sketch=0;orthogonalLoop=1;jettySize=auto;html=1;exitX=0;exitY=1;exitDx=0;exitDy=0;entryX=0.5;entryY=0;entryDx=0;entryDy=0;strokeColor=#0B4D6A;endArrow=none;endFill=0;" edge="1" parent="1" source="28" target="26">
                    <mxGeometry relative="1" as="geometry">
                        <Array as="points">
                            <mxPoint x="669.25" y="562"/>
                            <mxPoint x="603.25" y="562"/>
                        </Array>
                    </mxGeometry>
                </mxCell>
                <mxCell id="31" style="edgeStyle=orthogonalEdgeStyle;curved=0;rounded=1;sketch=0;orthogonalLoop=1;jettySize=auto;html=1;exitX=0.5;exitY=0;exitDx=0;exitDy=0;entryX=0.5;entryY=1;entryDx=0;entryDy=0;startArrow=none;startFill=0;endArrow=none;endFill=0;strokeColor=#0B4D6A;" edge="1" parent="1" source="28" target="19">
                    <mxGeometry relative="1" as="geometry"/>
                </mxCell>
                <mxCell id="28" value="D" style="ellipse;whiteSpace=wrap;html=1;align=center;rounded=0;sketch=0;fontColor=#EEEEEE;strokeColor=#BAC8D3;fillColor=#09555B;" vertex="1" parent="1">
                    <mxGeometry x="664.25" y="535" width="32" height="28" as="geometry"/>
                </mxCell>
                <mxCell id="34" style="edgeStyle=orthogonalEdgeStyle;curved=0;rounded=1;sketch=0;orthogonalLoop=1;jettySize=auto;html=1;exitX=1;exitY=0.5;exitDx=0;exitDy=0;entryX=0;entryY=0.5;entryDx=0;entryDy=0;startArrow=none;startFill=0;endArrow=none;endFill=0;strokeColor=#0B4D6A;" edge="1" parent="1" source="48" target="16">
                    <mxGeometry relative="1" as="geometry">
                        <mxPoint x="297.25" y="101" as="sourcePoint"/>
                    </mxGeometry>
                </mxCell>
                <mxCell id="36" style="edgeStyle=orthogonalEdgeStyle;curved=0;rounded=1;sketch=0;orthogonalLoop=1;jettySize=auto;html=1;exitX=0.5;exitY=0;exitDx=0;exitDy=0;entryX=0.5;entryY=1;entryDx=0;entryDy=0;startArrow=none;startFill=0;endArrow=none;endFill=0;strokeColor=#0B4D6A;" edge="1" parent="1" source="35" target="20">
                    <mxGeometry relative="1" as="geometry"/>
                </mxCell>
                <mxCell id="37" style="edgeStyle=orthogonalEdgeStyle;curved=0;rounded=1;sketch=0;orthogonalLoop=1;jettySize=auto;html=1;entryX=0.5;entryY=0;entryDx=0;entryDy=0;startArrow=none;startFill=0;endArrow=none;endFill=0;strokeColor=#0B4D6A;" edge="1" parent="1" source="35" target="15">
                    <mxGeometry relative="1" as="geometry"/>
                </mxCell>
                <mxCell id="35" value="Contain" style="shape=rhombus;perimeter=rhombusPerimeter;whiteSpace=wrap;html=1;align=center;rounded=0;sketch=0;fontColor=#EEEEEE;strokeColor=#BAC8D3;fillColor=#09555B;" vertex="1" parent="1">
                    <mxGeometry x="497.25" y="248" width="120" height="60" as="geometry"/>
                </mxCell>
                <mxCell id="39" style="edgeStyle=orthogonalEdgeStyle;curved=0;rounded=1;sketch=0;orthogonalLoop=1;jettySize=auto;html=1;exitX=0;exitY=0.5;exitDx=0;exitDy=0;entryX=1;entryY=0.5;entryDx=0;entryDy=0;startArrow=none;startFill=0;endArrow=none;endFill=0;strokeColor=#0B4D6A;" edge="1" parent="1" source="38" target="24">
                    <mxGeometry relative="1" as="geometry"/>
                </mxCell>
                <mxCell id="38" value="Post" style="shape=rhombus;perimeter=rhombusPerimeter;whiteSpace=wrap;html=1;align=center;rounded=0;sketch=0;fontColor=#EEEEEE;strokeColor=#BAC8D3;fillColor=#09555B;" vertex="1" parent="1">
                    <mxGeometry x="300.25" y="356" width="120" height="60" as="geometry"/>
                </mxCell>
                <mxCell id="42" style="edgeStyle=orthogonalEdgeStyle;curved=0;rounded=1;sketch=0;orthogonalLoop=1;jettySize=auto;html=1;entryX=0.5;entryY=0;entryDx=0;entryDy=0;startArrow=none;startFill=0;endArrow=none;endFill=0;strokeColor=#0B4D6A;shape=link;" edge="1" parent="1" source="41" target="21">
                    <mxGeometry relative="1" as="geometry"/>
                </mxCell>
                <mxCell id="43" style="edgeStyle=orthogonalEdgeStyle;curved=0;rounded=1;sketch=0;orthogonalLoop=1;jettySize=auto;html=1;exitX=0.5;exitY=0;exitDx=0;exitDy=0;entryX=0.5;entryY=1;entryDx=0;entryDy=0;startArrow=none;startFill=0;endArrow=none;endFill=0;strokeColor=#0B4D6A;" edge="1" parent="1" source="41" target="24">
                    <mxGeometry relative="1" as="geometry"/>
                </mxCell>
                <mxCell id="41" value="Reference" style="shape=rhombus;perimeter=rhombusPerimeter;whiteSpace=wrap;html=1;align=center;rounded=0;sketch=0;fontColor=#EEEEEE;strokeColor=#BAC8D3;fillColor=#09555B;" vertex="1" parent="1">
                    <mxGeometry x="22.25" y="459" width="120" height="60" as="geometry"/>
                </mxCell>
                <mxCell id="46" style="edgeStyle=orthogonalEdgeStyle;curved=0;rounded=1;sketch=0;orthogonalLoop=1;jettySize=auto;html=1;entryX=0.5;entryY=1;entryDx=0;entryDy=0;startArrow=none;startFill=0;endArrow=none;endFill=0;strokeColor=#0B4D6A;" edge="1" parent="1" source="45" target="24">
                    <mxGeometry relative="1" as="geometry"/>
                </mxCell>
                <mxCell id="47" style="edgeStyle=orthogonalEdgeStyle;curved=0;rounded=1;sketch=0;orthogonalLoop=1;jettySize=auto;html=1;exitX=0.5;exitY=1;exitDx=0;exitDy=0;entryX=0.5;entryY=0;entryDx=0;entryDy=0;startArrow=none;startFill=0;endArrow=none;endFill=0;strokeColor=#0B4D6A;shape=link;" edge="1" parent="1" source="45" target="25">
                    <mxGeometry relative="1" as="geometry"/>
                </mxCell>
                <mxCell id="45" value="Reference" style="shape=rhombus;perimeter=rhombusPerimeter;whiteSpace=wrap;html=1;align=center;rounded=0;sketch=0;fontColor=#EEEEEE;strokeColor=#BAC8D3;fillColor=#09555B;" vertex="1" parent="1">
                    <mxGeometry x="191.25" y="459" width="120" height="60" as="geometry"/>
                </mxCell>
                <mxCell id="50" value="" style="edgeStyle=orthogonalEdgeStyle;shape=link;curved=0;rounded=1;sketch=0;orthogonalLoop=1;jettySize=auto;html=1;startArrow=none;startFill=0;endArrow=none;endFill=0;strokeColor=#0B4D6A;exitX=0.5;exitY=1;exitDx=0;exitDy=0;" edge="1" parent="1" source="48" target="20">
                    <mxGeometry relative="1" as="geometry">
                        <mxPoint x="398" y="70" as="sourcePoint"/>
                    </mxGeometry>
                </mxCell>
                <mxCell id="48" value="Have" style="shape=rhombus;double=1;perimeter=rhombusPerimeter;whiteSpace=wrap;html=1;align=center;rounded=0;sketch=0;fontColor=#EEEEEE;strokeColor=#BAC8D3;fillColor=#09555B;" vertex="1" parent="1">
                    <mxGeometry x="497.25" y="44" width="120" height="60" as="geometry"/>
                </mxCell>
                <mxCell id="52" style="edgeStyle=orthogonalEdgeStyle;curved=0;rounded=1;sketch=0;orthogonalLoop=1;jettySize=auto;html=1;entryX=0.75;entryY=1;entryDx=0;entryDy=0;startArrow=none;startFill=0;endArrow=none;endFill=0;strokeColor=#0B4D6A;exitX=0.5;exitY=0;exitDx=0;exitDy=0;" edge="1" parent="1" source="51" target="24">
                    <mxGeometry relative="1" as="geometry">
                        <Array as="points">
                            <mxPoint x="443.25" y="455"/>
                            <mxPoint x="320.25" y="455"/>
                            <mxPoint x="320.25" y="425"/>
                            <mxPoint x="191.25" y="425"/>
                        </Array>
                    </mxGeometry>
                </mxCell>
                <mxCell id="53" style="edgeStyle=orthogonalEdgeStyle;curved=0;rounded=1;sketch=0;orthogonalLoop=1;jettySize=auto;html=1;exitX=0.5;exitY=1;exitDx=0;exitDy=0;entryX=0;entryY=0.5;entryDx=0;entryDy=0;startArrow=none;startFill=0;endArrow=none;endFill=0;strokeColor=#0B4D6A;" edge="1" parent="1" source="51" target="26">
                    <mxGeometry relative="1" as="geometry"/>
                </mxCell>
                <mxCell id="51" value="Asked By" style="shape=rhombus;perimeter=rhombusPerimeter;whiteSpace=wrap;html=1;align=center;rounded=0;sketch=0;fontColor=#EEEEEE;strokeColor=#BAC8D3;fillColor=#09555B;" vertex="1" parent="1">
                    <mxGeometry x="383.25" y="472" width="120" height="60" as="geometry"/>
                </mxCell>
                <mxCell id="56" style="edgeStyle=orthogonalEdgeStyle;curved=0;rounded=1;sketch=0;orthogonalLoop=1;jettySize=auto;html=1;exitX=0.5;exitY=1;exitDx=0;exitDy=0;entryX=0.5;entryY=0;entryDx=0;entryDy=0;startArrow=none;startFill=0;endArrow=none;endFill=0;strokeColor=#0B4D6A;" edge="1" parent="1" source="54" target="19">
                    <mxGeometry relative="1" as="geometry"/>
                </mxCell>
                <mxCell id="54" value="Save" style="shape=rhombus;perimeter=rhombusPerimeter;whiteSpace=wrap;html=1;align=center;rounded=0;sketch=0;fontColor=#EEEEEE;strokeColor=#BAC8D3;fillColor=#09555B;" vertex="1" parent="1">
                    <mxGeometry x="684" y="240" width="120" height="60" as="geometry"/>
                </mxCell>
                <mxCell id="58" style="edgeStyle=orthogonalEdgeStyle;curved=0;rounded=1;sketch=0;orthogonalLoop=1;jettySize=auto;html=1;entryX=0.5;entryY=1;entryDx=0;entryDy=0;startArrow=none;startFill=0;endArrow=none;endFill=0;strokeColor=#0B4D6A;" edge="1" parent="1" source="57" target="26">
                    <mxGeometry relative="1" as="geometry"/>
                </mxCell>
                <mxCell id="57" value="Have" style="shape=rhombus;perimeter=rhombusPerimeter;whiteSpace=wrap;html=1;align=center;rounded=0;sketch=0;fontColor=#EEEEEE;strokeColor=#BAC8D3;fillColor=#09555B;" vertex="1" parent="1">
                    <mxGeometry x="543" y="669" width="120" height="60" as="geometry"/>
                </mxCell>
                <mxCell id="60" style="edgeStyle=orthogonalEdgeStyle;curved=0;rounded=1;sketch=0;orthogonalLoop=1;jettySize=auto;html=1;entryX=0.5;entryY=1;entryDx=0;entryDy=0;startArrow=none;startFill=0;endArrow=none;endFill=0;strokeColor=#0B4D6A;" edge="1" parent="1" source="59" target="57">
                    <mxGeometry relative="1" as="geometry"/>
                </mxCell>
                <mxCell id="59" value="Solution_Video" style="whiteSpace=wrap;html=1;align=center;rounded=0;sketch=0;fontColor=#EEEEEE;strokeColor=#BAC8D3;fillColor=#09555B;" vertex="1" parent="1">
                    <mxGeometry x="541.75" y="772" width="122.5" height="49" as="geometry"/>
                </mxCell>
            </root>
        </mxGraphModel>
    </diagram>
</mxfile>